<svg xmlns="http://www.w3.org/2000/svg" viewBox="0 0 512 512">
  <defs>
    <linearGradient id="grad1" x1="0%" y1="0%" x2="100%" y2="100%">
      <stop offset="0%" style="stop-color:#4f46e5;stop-opacity:1" />
      <stop offset="100%" style="stop-color:#ec4899;stop-opacity:1" />
    </linearGradient>
  </defs>
  <rect width="512" height="512" rx="128" fill="url(#grad1)" />
  <path d="M360 200c0-60-40-100-100-100s-100 40-100 100 40 80 80 80c40 0 60 20 60 40s-20 40-60 40-80-30-80-80h-60c0 70 50 130 140 130s140-50 140-130-50-80-80-80c-40 0-60-20-60-40s20-40 60-40 80 30 80 80h60z" fill="white" />
</svg>
